<svg xmlns="http://www.w3.org/2000/svg" xmlns:xlink="http://www.w3.org/1999/xlink" viewBox="0 0 2104 440"><defs><style>.cls-1,.cls-3{fill:none;}.cls-2{clip-path:url(#clip-path);}.cls-3{stroke:#666;stroke-miterlimit:10;stroke-width:40px;}.cls-4{fill:#299ecb;}.cls-5{fill:#e1b93f;}.cls-6{fill:#d54563;}.cls-7{fill:#b2b74e;}.cls-8{fill:#333;}</style><clipPath id="clip-path"><path class="cls-1" d="M225.14,432.23a153.91,153.91,0,0,1-37.07-2.92c-12.43-2.52-29.9-9-56.19-23.61-63-35-98.58-98.62-108.3-116.44A331.07,331.07,0,0,1,6.84,253.69,77.73,77.73,0,0,0,62.25,264,204.75,204.75,0,0,0,215.17,390.2a49,49,0,0,0,10,42Z"/></clipPath></defs><title>logo-with-text</title><g id="Bold_Circle" data-name="Bold Circle"><g class="cls-2"><circle class="cls-3" cx="249.76" cy="189" r="225"/></g></g><g id="Polys"><path class="cls-4" d="M138.22,212.59l-17.9,55.1A20,20,0,0,0,127.59,290l46.87,34.05a20,20,0,0,0,23.51,0L244.83,290a20,20,0,0,0,7.27-22.36l-17.9-55.1a20,20,0,0,0-19-13.82H157.24A20,20,0,0,0,138.22,212.59Z"/><path class="cls-5" d="M78.71,110.46A11.58,11.58,0,0,0,82.18,125l16.21,11.34a13.57,13.57,0,0,0,15.77-.79L161.34,94.9a14,14,0,0,0,3.34-15.59l-15-32.16a8.11,8.11,0,0,0-12.42-3.31s-4.16,2.93-11.56,9.32a218.4,218.4,0,0,0-21.93,22.05,224.51,224.51,0,0,0-17,22.27C81.33,105.58,78.71,110.46,78.71,110.46Z"/><path class="cls-6" d="M248.11,98.86l6.06,57.61a20,20,0,0,0,15.73,17.47l56.66,12A20,20,0,0,0,348,176.43l29-50.17a20,20,0,0,0-2.46-23.38L335.79,59.82a20,20,0,0,0-23-4.89L259.87,78.5A20,20,0,0,0,248.11,98.86Z"/><path class="cls-7" d="M408.67,262a11.58,11.58,0,0,0-5.47-13.92l-17.63-9a13.57,13.57,0,0,0-15.5,3L329,289a14,14,0,0,0-1.13,15.9l19.39,29.74A8.11,8.11,0,0,0,360,336.19s3.71-3.48,10.15-10.85a218.4,218.4,0,0,0,18.63-24.9A224.51,224.51,0,0,0,402.56,276C406.76,267.25,408.67,262,408.67,262Z"/><path class="cls-8" d="M579.48,219.22V102.62l-51.8,90.2h-8.2l-52-90.2v116.6h-13.8v-142h14.2l55.6,97.2,55.6-97.2h14.2v142Z"/><path class="cls-8" d="M775.08,219.22V102.62l-51.8,90.2h-8.2l-52-90.2v116.6h-13.8v-142h14.2l55.6,97.2,55.6-97.2h14.2v142Z"/><path class="cls-8" d="M970.67,219.22V102.62l-51.8,90.2h-8.2l-52-90.2v116.6h-13.8v-142h14.2l55.6,97.2,55.6-97.2h14.2v142Z"/><path class="cls-8" d="M1123.87,103.82a43.12,43.12,0,0,0-16.1-11,58.61,58.61,0,0,0-22.7-4.2q-19,0-27.6,7.1t-8.6,19.3a21.27,21.27,0,0,0,2.3,10.5,19.83,19.83,0,0,0,7.2,7.1,51.71,51.71,0,0,0,12.4,5.2q7.5,2.2,17.7,4.4a204.46,204.46,0,0,1,20.4,5.3,57.09,57.09,0,0,1,15.4,7.4,30.88,30.88,0,0,1,9.8,11q3.4,6.5,3.4,16.1a36,36,0,0,1-3.8,17,33.91,33.91,0,0,1-10.6,12,47.25,47.25,0,0,1-16.2,7.1,85.84,85.84,0,0,1-20.4,2.3q-33.4,0-57-20.6l6.8-11.4q7.8,8.2,21,13.9a73.42,73.42,0,0,0,29.4,5.7q17,0,26.6-6.1t9.6-18.5a21.23,21.23,0,0,0-2.7-11.1,23.39,23.39,0,0,0-8.1-7.8,57.09,57.09,0,0,0-13.5-5.7q-8.1-2.4-18.7-4.8-11.2-2.6-19.6-5.4a50.59,50.59,0,0,1-14.1-7,27.57,27.57,0,0,1-8.6-10.1,32.65,32.65,0,0,1-2.9-14.5,39.89,39.89,0,0,1,3.7-17.5,34.76,34.76,0,0,1,10.4-12.8,48.4,48.4,0,0,1,16-7.8,73.33,73.33,0,0,1,20.5-2.7,69.09,69.09,0,0,1,25.1,4.3,68,68,0,0,1,20.1,12.1Z"/><path class="cls-8" d="M1182.87,219.22v-142h13.8v129.6h82.2v12.4Z"/><path class="cls-8" d="M520.23,318.05v-58.3l-25.9,45.1h-4.1l-26-45.1v58.3h-6.9v-71h7.1l27.8,48.6,27.8-48.6h7.1v71Z"/><path class="cls-8" d="M543.43,255.05v-10h6.8v10Zm0,63V266h6.8v52.1Z"/><path class="cls-8" d="M586.43,319.05a22.45,22.45,0,0,1-10-2.25,26,26,0,0,1-7.95-6,26.83,26.83,0,0,1-5.2-8.55,28.21,28.21,0,0,1-1.85-10.15,30.34,30.34,0,0,1,1.8-10.45,27.9,27.9,0,0,1,4.95-8.65,23.34,23.34,0,0,1,7.5-5.85,21.25,21.25,0,0,1,9.55-2.15,20.39,20.39,0,0,1,11.7,3.45,27.2,27.2,0,0,1,8.1,8.35v-31.8h6.8v64.2q0,2.8,2.4,2.8v6a16.44,16.44,0,0,1-2.7.3,5.86,5.86,0,0,1-4.1-1.45,4.5,4.5,0,0,1-1.6-3.45V308a23.72,23.72,0,0,1-8.45,8.1A21.77,21.77,0,0,1,586.43,319.05Zm1.4-6a16.45,16.45,0,0,0,5.45-1,21.06,21.06,0,0,0,5.3-2.75,19.85,19.85,0,0,0,4.25-4.1,10.83,10.83,0,0,0,2.2-5.05v-16.1a17.29,17.29,0,0,0-3-5,24.77,24.77,0,0,0-4.4-4.15,20.74,20.74,0,0,0-5.2-2.8,15.89,15.89,0,0,0-5.45-1,16.28,16.28,0,0,0-7.65,1.8,18.47,18.47,0,0,0-5.85,4.75,22.59,22.59,0,0,0-3.75,6.75,23.15,23.15,0,0,0-1.35,7.8A21.85,21.85,0,0,0,574,306.8a19.81,19.81,0,0,0,6.15,4.55A17.46,17.46,0,0,0,587.83,313.05Z"/><path class="cls-8" d="M626.43,294v-6.3h29.1V294Z"/><path class="cls-8" d="M734,318.05v-58.3l-25.9,45.1H704l-26-45.1v58.3h-6.9v-71h7.1l27.8,48.6,27.8-48.6h7.1v71Z"/><path class="cls-8" d="M757.23,255.05v-10H764v10Zm0,63V266H764v52.1Z"/><path class="cls-8" d="M775.23,291.85a28.51,28.51,0,0,1,1.9-10.4,26,26,0,0,1,5.35-8.55,25,25,0,0,1,8.25-5.75,26.17,26.17,0,0,1,10.6-2.1,24.32,24.32,0,0,1,12.9,3.35,21.53,21.53,0,0,1,8.3,9.05l-6.6,2.1a16,16,0,0,0-6.1-6.25,17.09,17.09,0,0,0-8.7-2.25,17.5,17.5,0,0,0-7.45,1.6,19,19,0,0,0-6,4.35,20,20,0,0,0-4,6.55,24.09,24.09,0,0,0,0,16.6,21.14,21.14,0,0,0,4.1,6.75,19.5,19.5,0,0,0,6,4.5,16.81,16.81,0,0,0,7.35,1.65,17.91,17.91,0,0,0,5-.7,19,19,0,0,0,4.55-2,16.31,16.31,0,0,0,3.6-2.85,9.25,9.25,0,0,0,2.1-3.4l6.6,2a17,17,0,0,1-3.2,5.15,22,22,0,0,1-5,4.1,24.23,24.23,0,0,1-6.3,2.7,26.84,26.84,0,0,1-7.15,1,25.31,25.31,0,0,1-18.8-8,27.37,27.37,0,0,1-5.45-8.65A28.12,28.12,0,0,1,775.23,291.85Z"/><path class="cls-8" d="M877.42,318.05h-6.8V289q0-8.9-3-13.3a10.2,10.2,0,0,0-9-4.4,15.27,15.27,0,0,0-5.75,1.15,21.31,21.31,0,0,0-5.35,3.15,21.64,21.64,0,0,0-4.35,4.7,19.87,19.87,0,0,0-2.75,5.9v31.9h-6.8v-73h6.8v32.7a24.36,24.36,0,0,1,8.7-9.3,22.06,22.06,0,0,1,11.8-3.4,16.31,16.31,0,0,1,7.65,1.65,13.56,13.56,0,0,1,5.1,4.6,20.73,20.73,0,0,1,2.85,7.1,43.27,43.27,0,0,1,.9,9.15Z"/><path class="cls-8" d="M891.52,255.05v-10h6.8v10Zm0,63V266h6.8v52.1Z"/><path class="cls-8" d="M934,318.75a21.51,21.51,0,0,1-9.85-2.25,25.39,25.39,0,0,1-7.7-6,27.23,27.23,0,0,1-5.05-8.5,28,28,0,0,1-1.8-9.9,30.81,30.81,0,0,1,1.75-10.35,26.62,26.62,0,0,1,5-8.65,24.17,24.17,0,0,1,7.65-5.9,21.93,21.93,0,0,1,9.85-2.2,20.06,20.06,0,0,1,11.6,3.35,32.21,32.21,0,0,1,8.4,8.45V266h6.1v52.3a21.31,21.31,0,0,1-2,9.55,20.56,20.56,0,0,1-5.5,7,23.39,23.39,0,0,1-8.15,4.2,34.54,34.54,0,0,1-9.9,1.4q-8.9,0-14.4-3.2a25.56,25.56,0,0,1-8.9-8.6l4.2-3.3a18.74,18.74,0,0,0,8.2,7.35,25.75,25.75,0,0,0,10.9,2.35,24.76,24.76,0,0,0,7.25-1.05,17.69,17.69,0,0,0,6-3.1,14.63,14.63,0,0,0,4-5.2,16.92,16.92,0,0,0,1.5-7.35V308a22.6,22.6,0,0,1-8.25,7.9A21.78,21.78,0,0,1,934,318.75Zm1.9-5.7a16.5,16.5,0,0,0,5.9-1.1,19.75,19.75,0,0,0,5.25-3,19.35,19.35,0,0,0,3.95-4.15,12.81,12.81,0,0,0,2.1-4.7v-16.1a19.6,19.6,0,0,0-3-5.2,21.68,21.68,0,0,0-9.5-6.8,16.74,16.74,0,0,0-13.35.85,19,19,0,0,0-5.8,4.85,21.57,21.57,0,0,0-3.65,6.8,24.47,24.47,0,0,0-1.25,7.7,21.84,21.84,0,0,0,5.6,14.65,19.15,19.15,0,0,0,6.15,4.5A17.91,17.91,0,0,0,935.92,313.05Z"/><path class="cls-8" d="M988.32,319.05a20.47,20.47,0,0,1-7.3-1.25,16.91,16.91,0,0,1-5.65-3.45,15.71,15.71,0,0,1-3.65-5.1,14.73,14.73,0,0,1-1.3-6.1,13.51,13.51,0,0,1,1.6-6.55,15.08,15.08,0,0,1,4.5-5,22,22,0,0,1,7-3.25,32.74,32.74,0,0,1,9-1.15,47.6,47.6,0,0,1,8,.7,35.3,35.3,0,0,1,7.3,2v-4.7q0-6.9-4-10.95t-10.65-4.05a23.08,23.08,0,0,0-8.35,1.6,40,40,0,0,0-8.45,4.6l-2.4-4.5a45.26,45.26,0,0,1,9.9-5.1,29.74,29.74,0,0,1,10-1.7q9.5,0,15.1,5.5t5.6,15.2v23.5q0,2.8,2.4,2.8v6q-.8.1-1.5.15c-.47,0-.87,0-1.2,0a6.06,6.06,0,0,1-3.65-1.2,4.67,4.67,0,0,1-1.85-3.6l-.2-4.1a22.65,22.65,0,0,1-8.95,7.15A26.71,26.71,0,0,1,988.32,319.05Zm1.7-5.2a22.12,22.12,0,0,0,9-2,17.49,17.49,0,0,0,7-5.35,10.65,10.65,0,0,0,1.2-2,4.57,4.57,0,0,0,.5-2v-8.5a41.63,41.63,0,0,0-7.1-2,38.86,38.86,0,0,0-7.2-.7q-7.3,0-11.85,2.95a9.23,9.23,0,0,0-4.55,8.15,10.91,10.91,0,0,0,.8,4.1,10.3,10.3,0,0,0,2.45,3.6,12.79,12.79,0,0,0,4.05,2.6A14.76,14.76,0,0,0,990,313.85Z"/><path class="cls-8" d="M1073.12,318.05h-6.8V289q0-9.3-2.7-13.5t-8.4-4.2a17.35,17.35,0,0,0-6,1.1,21,21,0,0,0-5.6,3.1,22,22,0,0,0-4.55,4.75,21.1,21.1,0,0,0-2.95,5.95v31.9h-6.8V266h6.2v11.8a24.31,24.31,0,0,1,4-5.15,26,26,0,0,1,5.25-4,25.62,25.62,0,0,1,6.15-2.6,25.14,25.14,0,0,1,6.75-.9,15.29,15.29,0,0,1,7.35,1.6,12.58,12.58,0,0,1,4.75,4.5,20.77,20.77,0,0,1,2.6,7.1,49.85,49.85,0,0,1,.8,9.3Z"/><path class="cls-8" d="M1177.42,318.05v-58.3l-25.9,45.1h-4.1l-26-45.1v58.3h-6.9v-71h7.1l27.8,48.6,27.8-48.6h7.1v71Z"/><path class="cls-8" d="M1223.42,319.05a25.31,25.31,0,0,1-18.8-8,27.39,27.39,0,0,1-5.45-8.65,28.13,28.13,0,0,1-1.95-10.5,27.49,27.49,0,0,1,1.95-10.35,26.18,26.18,0,0,1,13.7-14.3,25.41,25.41,0,0,1,29,5.85,27.46,27.46,0,0,1,7.2,18.7q0,.8,0,1.6a5.09,5.09,0,0,1-.15,1.1h-44.5a22,22,0,0,0,6.15,13.9,18.4,18.4,0,0,0,5.9,4,17.78,17.78,0,0,0,7.15,1.45,18.79,18.79,0,0,0,5.1-.7,20.17,20.17,0,0,0,4.6-1.9,16.08,16.08,0,0,0,3.75-3,13.12,13.12,0,0,0,2.55-3.85l5.9,1.6a17.31,17.31,0,0,1-3.4,5.25,23.68,23.68,0,0,1-5.1,4.1,24.94,24.94,0,0,1-6.4,2.7A27.39,27.39,0,0,1,1223.42,319.05Zm19.2-29.8a20.91,20.91,0,0,0-6.15-13.6,18.49,18.49,0,0,0-6-3.9,19.21,19.21,0,0,0-14.4,0,18.48,18.48,0,0,0-6,3.9,19.21,19.21,0,0,0-4.1,6,22.69,22.69,0,0,0-1.85,7.6Z"/><path class="cls-8" d="M1303.12,318.05h-6.8V289q0-9.3-2.7-13.5t-8.4-4.2a17.35,17.35,0,0,0-6,1.1,21,21,0,0,0-5.6,3.1,22,22,0,0,0-4.55,4.75,21.11,21.11,0,0,0-3,5.95v31.9h-6.8V266h6.2v11.8a24.31,24.31,0,0,1,4-5.15,26,26,0,0,1,5.25-4,25.62,25.62,0,0,1,6.15-2.6,25.15,25.15,0,0,1,6.75-.9,15.29,15.29,0,0,1,7.35,1.6,12.58,12.58,0,0,1,4.75,4.5,20.76,20.76,0,0,1,2.6,7.1,49.85,49.85,0,0,1,.8,9.3Z"/><path class="cls-8" d="M1313.82,245.05a12,12,0,0,1,2.9.35,7.76,7.76,0,0,1,2.5,1.1,5.82,5.82,0,0,1,1.8,2,6,6,0,0,1,.7,3v12h-5.8v-11.1a1.8,1.8,0,0,0-.7-1.7,2.82,2.82,0,0,0-1.4-.4Z"/><path class="cls-8" d="M1352.22,319.05a36.25,36.25,0,0,1-11.9-2,28.57,28.57,0,0,1-10-5.8l3.1-4.6a33.88,33.88,0,0,0,9,5.4,26.25,26.25,0,0,0,9.75,1.8q6.3,0,10-2.55a8.25,8.25,0,0,0,3.75-7.25,6.29,6.29,0,0,0-1-3.65,8.69,8.69,0,0,0-3-2.55,23.14,23.14,0,0,0-4.9-2q-3-.85-6.85-1.75-4.5-1.1-7.8-2.2a23.83,23.83,0,0,1-5.45-2.5,9,9,0,0,1-3.2-3.45,11.25,11.25,0,0,1-1-5.15,14.81,14.81,0,0,1,1.55-6.9,14.07,14.07,0,0,1,4.2-5,19.08,19.08,0,0,1,6.2-3,27.74,27.74,0,0,1,7.55-1,29.25,29.25,0,0,1,10.9,2,21.55,21.55,0,0,1,7.9,5.15l-3.3,4a18.31,18.31,0,0,0-7-4.5,25.26,25.26,0,0,0-8.65-1.5,21.5,21.5,0,0,0-5,.55,12,12,0,0,0-4,1.75,8.61,8.61,0,0,0-2.75,3,9,9,0,0,0-1,4.35,7.16,7.16,0,0,0,.7,3.4,6,6,0,0,0,2.3,2.25,18.67,18.67,0,0,0,4,1.7q2.45.75,6,1.55,5,1.2,8.8,2.4a27.7,27.7,0,0,1,6.35,2.8,11,11,0,0,1,3.85,3.9,11.23,11.23,0,0,1,1.3,5.6,13.58,13.58,0,0,1-5.5,11.4Q1361.52,319.05,1352.22,319.05Z"/><path class="cls-8" d="M1452.42,260.35a21.57,21.57,0,0,0-8-5.5,29.32,29.32,0,0,0-11.35-2.1q-9.5,0-13.8,3.55a11.85,11.85,0,0,0-4.3,9.65,10.65,10.65,0,0,0,1.15,5.25,9.91,9.91,0,0,0,3.6,3.55,25.84,25.84,0,0,0,6.2,2.6q3.75,1.1,8.85,2.2a102.11,102.11,0,0,1,10.2,2.65,28.54,28.54,0,0,1,7.7,3.7,15.44,15.44,0,0,1,4.9,5.5,17.24,17.24,0,0,1,1.7,8.05,18,18,0,0,1-1.9,8.5,17,17,0,0,1-5.3,6,23.63,23.63,0,0,1-8.1,3.55,42.93,42.93,0,0,1-10.2,1.15q-16.7,0-28.5-10.3l3.4-5.7a31.47,31.47,0,0,0,10.5,7,36.7,36.7,0,0,0,14.7,2.85q8.5,0,13.3-3.05t4.8-9.25a10.61,10.61,0,0,0-1.35-5.55,11.68,11.68,0,0,0-4-3.9,28.49,28.49,0,0,0-6.75-2.85q-4.05-1.2-9.35-2.4-5.6-1.3-9.8-2.7a25.31,25.31,0,0,1-7.05-3.5,13.8,13.8,0,0,1-4.3-5,16.33,16.33,0,0,1-1.45-7.25,19.94,19.94,0,0,1,1.85-8.75,17.37,17.37,0,0,1,5.2-6.4,24.19,24.19,0,0,1,8-3.9,36.69,36.69,0,0,1,10.25-1.35,34.55,34.55,0,0,1,12.55,2.15,34,34,0,0,1,10,6.05Z"/><path class="cls-8" d="M1492.72,319.05a25,25,0,0,1-10.45-2.15,25.38,25.38,0,0,1-8.2-5.85,26.51,26.51,0,0,1-5.35-8.6,28.24,28.24,0,0,1-1.9-10.3,27.87,27.87,0,0,1,1.95-10.4,27.3,27.3,0,0,1,5.4-8.6,26.08,26.08,0,0,1,8.2-5.9,25.44,25.44,0,0,1,20.7,0,26.1,26.1,0,0,1,8.2,5.9,27.26,27.26,0,0,1,5.4,8.6,28.44,28.44,0,0,1,0,20.7,27.23,27.23,0,0,1-5.4,8.6,25.4,25.4,0,0,1-8.2,5.85A24.81,24.81,0,0,1,1492.72,319.05Zm-18.9-26.8a22.4,22.4,0,0,0,1.45,8.15,21.34,21.34,0,0,0,4,6.6,18.32,18.32,0,0,0,6,4.45,17.27,17.27,0,0,0,7.35,1.6,16.81,16.81,0,0,0,7.35-1.65,19.52,19.52,0,0,0,6-4.5,21.42,21.42,0,0,0,4.1-6.65,23,23,0,0,0,0-16.35,21.31,21.31,0,0,0-4.1-6.7,19.72,19.72,0,0,0-6-4.5,16.49,16.49,0,0,0-7.3-1.65,16.81,16.81,0,0,0-7.35,1.65,18.61,18.61,0,0,0-6,4.55,22.67,22.67,0,0,0-5.55,15Z"/><path class="cls-8" d="M1526.32,291.85a28.52,28.52,0,0,1,1.9-10.4,26,26,0,0,1,5.35-8.55,25,25,0,0,1,8.25-5.75,26.17,26.17,0,0,1,10.6-2.1,24.32,24.32,0,0,1,12.9,3.35,21.53,21.53,0,0,1,8.3,9.05l-6.6,2.1a16,16,0,0,0-6.1-6.25,17.09,17.09,0,0,0-8.7-2.25,17.51,17.51,0,0,0-7.45,1.6,19,19,0,0,0-6,4.35,20,20,0,0,0-4,6.55,24.1,24.1,0,0,0,.05,16.6,21.14,21.14,0,0,0,4.1,6.75,19.5,19.5,0,0,0,6,4.5,16.81,16.81,0,0,0,7.35,1.65,17.9,17.9,0,0,0,4.95-.7,19,19,0,0,0,4.55-2,16.32,16.32,0,0,0,3.6-2.85,9.25,9.25,0,0,0,2.1-3.4l6.6,2a17,17,0,0,1-3.2,5.15,22,22,0,0,1-5,4.1,24.22,24.22,0,0,1-6.3,2.7,26.84,26.84,0,0,1-7.15,1,25.31,25.31,0,0,1-18.8-8,27.39,27.39,0,0,1-5.45-8.65A28.13,28.13,0,0,1,1526.32,291.85Z"/><path class="cls-8" d="M1581.32,291.85a28.52,28.52,0,0,1,1.9-10.4,26,26,0,0,1,5.35-8.55,25,25,0,0,1,8.25-5.75,26.17,26.17,0,0,1,10.6-2.1,24.32,24.32,0,0,1,12.9,3.35,21.53,21.53,0,0,1,8.3,9.05l-6.6,2.1a16,16,0,0,0-6.1-6.25,17.09,17.09,0,0,0-8.7-2.25,17.51,17.51,0,0,0-7.45,1.6,19,19,0,0,0-6,4.35,20,20,0,0,0-4,6.55,24.1,24.1,0,0,0,.05,16.6,21.14,21.14,0,0,0,4.1,6.75,19.5,19.5,0,0,0,6,4.5,16.81,16.81,0,0,0,7.35,1.65,17.9,17.9,0,0,0,4.95-.7,19,19,0,0,0,4.55-2,16.32,16.32,0,0,0,3.6-2.85,9.25,9.25,0,0,0,2.1-3.4l6.6,2a17,17,0,0,1-3.2,5.15,22,22,0,0,1-5,4.1,24.22,24.22,0,0,1-6.3,2.7,26.84,26.84,0,0,1-7.15,1,25.31,25.31,0,0,1-18.8-8,27.39,27.39,0,0,1-5.45-8.65A28.13,28.13,0,0,1,1581.32,291.85Z"/><path class="cls-8" d="M1662.51,319.05a25.31,25.31,0,0,1-18.8-8,27.39,27.39,0,0,1-5.45-8.65,28.13,28.13,0,0,1-1.95-10.5,27.49,27.49,0,0,1,1.95-10.35,26.18,26.18,0,0,1,13.7-14.3,25.41,25.41,0,0,1,29,5.85,27.46,27.46,0,0,1,7.2,18.7q0,.8,0,1.6a5.09,5.09,0,0,1-.15,1.1h-44.5a22,22,0,0,0,6.15,13.9,18.4,18.4,0,0,0,5.9,4,17.78,17.78,0,0,0,7.15,1.45,18.79,18.79,0,0,0,5.1-.7,20.17,20.17,0,0,0,4.6-1.9,16.08,16.08,0,0,0,3.75-3,13.12,13.12,0,0,0,2.55-3.85l5.9,1.6a17.31,17.31,0,0,1-3.4,5.25,23.68,23.68,0,0,1-5.1,4.1,24.94,24.94,0,0,1-6.4,2.7A27.39,27.39,0,0,1,1662.51,319.05Zm19.2-29.8a20.91,20.91,0,0,0-6.15-13.6,18.49,18.49,0,0,0-6-3.9,19.21,19.21,0,0,0-14.4,0,18.48,18.48,0,0,0-6,3.9,19.21,19.21,0,0,0-4.1,6,22.69,22.69,0,0,0-1.85,7.6Z"/><path class="cls-8" d="M1724.41,272a21.39,21.39,0,0,0-12,3.8,19.17,19.17,0,0,0-7.2,9.9v32.4h-6.8V266h6.4v12.5a27.38,27.38,0,0,1,7.1-9.15,14.6,14.6,0,0,1,9.5-3.65h1.7a7,7,0,0,1,1.3.1Z"/><path class="cls-8" d="M1758.61,318.05v-71h6.9v64.8h41.1v6.2Z"/><path class="cls-8" d="M1838.71,319.05a25.31,25.31,0,0,1-18.8-8,27.39,27.39,0,0,1-5.45-8.65,28.13,28.13,0,0,1-1.95-10.5,27.49,27.49,0,0,1,1.95-10.35,26.18,26.18,0,0,1,13.7-14.3,25.41,25.41,0,0,1,29,5.85,27.46,27.46,0,0,1,7.2,18.7q0,.8,0,1.6a5.09,5.09,0,0,1-.15,1.1h-44.5a22,22,0,0,0,6.15,13.9,18.4,18.4,0,0,0,5.9,4,17.78,17.78,0,0,0,7.15,1.45,18.79,18.79,0,0,0,5.1-.7,20.17,20.17,0,0,0,4.6-1.9,16.08,16.08,0,0,0,3.75-3,13.12,13.12,0,0,0,2.55-3.85l5.9,1.6a17.31,17.31,0,0,1-3.4,5.25,23.68,23.68,0,0,1-5.1,4.1,24.94,24.94,0,0,1-6.4,2.7A27.39,27.39,0,0,1,1838.71,319.05Zm19.2-29.8a20.91,20.91,0,0,0-6.15-13.6,18.49,18.49,0,0,0-6-3.9,19.21,19.21,0,0,0-14.4,0,18.48,18.48,0,0,0-6,3.9,19.21,19.21,0,0,0-4.1,6,22.69,22.69,0,0,0-1.85,7.6Z"/><path class="cls-8" d="M1888.41,319.05a20.47,20.47,0,0,1-7.3-1.25,16.89,16.89,0,0,1-5.65-3.45,15.7,15.7,0,0,1-3.65-5.1,14.73,14.73,0,0,1-1.3-6.1,13.51,13.51,0,0,1,1.6-6.55,15.07,15.07,0,0,1,4.5-5,22,22,0,0,1,7-3.25,32.74,32.74,0,0,1,9-1.15,47.6,47.6,0,0,1,8,.7,35.31,35.31,0,0,1,7.3,2v-4.7q0-6.9-4-10.95t-10.65-4.05a23.08,23.08,0,0,0-8.35,1.6,40.07,40.07,0,0,0-8.45,4.6l-2.4-4.5a45.27,45.27,0,0,1,9.9-5.1,29.75,29.75,0,0,1,10-1.7q9.5,0,15.1,5.5t5.6,15.2v23.5q0,2.8,2.4,2.8v6q-.8.1-1.5.15c-.47,0-.87,0-1.2,0a6.07,6.07,0,0,1-3.65-1.2,4.67,4.67,0,0,1-1.85-3.6l-.2-4.1a22.65,22.65,0,0,1-9,7.15A26.7,26.7,0,0,1,1888.41,319.05Zm1.7-5.2a22.12,22.12,0,0,0,9-2,17.49,17.49,0,0,0,7-5.35,10.62,10.62,0,0,0,1.2-2,4.57,4.57,0,0,0,.5-2v-8.5a41.67,41.67,0,0,0-7.1-2,38.87,38.87,0,0,0-7.2-.7q-7.3,0-11.85,2.95a9.23,9.23,0,0,0-4.55,8.15,10.92,10.92,0,0,0,.8,4.1,10.31,10.31,0,0,0,2.45,3.6,12.8,12.8,0,0,0,4,2.6A14.77,14.77,0,0,0,1890.11,313.85Z"/><path class="cls-8" d="M1950.51,318.75a21.51,21.51,0,0,1-9.85-2.25,25.39,25.39,0,0,1-7.7-6,27.24,27.24,0,0,1-5-8.5,28,28,0,0,1-1.8-9.9,30.81,30.81,0,0,1,1.75-10.35,26.63,26.63,0,0,1,5-8.65,24.18,24.18,0,0,1,7.65-5.9,21.93,21.93,0,0,1,9.85-2.2,20.06,20.06,0,0,1,11.6,3.35,32.22,32.22,0,0,1,8.4,8.45V266h6.1v52.3a21.32,21.32,0,0,1-2,9.55,20.56,20.56,0,0,1-5.5,7,23.39,23.39,0,0,1-8.15,4.2,34.53,34.53,0,0,1-9.9,1.4q-8.9,0-14.4-3.2a25.55,25.55,0,0,1-8.9-8.6l4.2-3.3a18.75,18.75,0,0,0,8.2,7.35,25.75,25.75,0,0,0,10.9,2.35,24.76,24.76,0,0,0,7.25-1.05,17.69,17.69,0,0,0,6-3.1,14.62,14.62,0,0,0,4-5.2,16.92,16.92,0,0,0,1.5-7.35V308a22.6,22.6,0,0,1-8.25,7.9A21.78,21.78,0,0,1,1950.51,318.75Zm1.9-5.7a16.5,16.5,0,0,0,5.9-1.1,19.75,19.75,0,0,0,5.25-3,19.36,19.36,0,0,0,4-4.15,12.81,12.81,0,0,0,2.1-4.7v-16.1a19.6,19.6,0,0,0-3-5.2,21.68,21.68,0,0,0-9.5-6.8,16.74,16.74,0,0,0-13.35.85,19,19,0,0,0-5.8,4.85,21.55,21.55,0,0,0-3.65,6.8,24.45,24.45,0,0,0-1.25,7.7,21.85,21.85,0,0,0,5.6,14.65,19.15,19.15,0,0,0,6.15,4.5A17.91,17.91,0,0,0,1952.41,313.05Z"/><path class="cls-8" d="M2007.11,319.05q-8.2,0-12.4-5.65t-4.2-16.85V266h6.8v29.4q0,17.7,12.1,17.7a18,18,0,0,0,5.9-1,18.52,18.52,0,0,0,5.35-2.9,23.43,23.43,0,0,0,4.4-4.5,22.63,22.63,0,0,0,3.15-5.9V266h6.8v43.3q0,2.8,2.5,2.8v6a22.15,22.15,0,0,1-2.8.3,5.9,5.9,0,0,1-4-1.4,4.41,4.41,0,0,1-1.65-3.5v-7.2a24.94,24.94,0,0,1-22,12.8Z"/><path class="cls-8" d="M2073.21,319.05a25.31,25.31,0,0,1-18.8-8,27.39,27.39,0,0,1-5.45-8.65,28.13,28.13,0,0,1-1.95-10.5A27.49,27.49,0,0,1,2049,281.5a26.18,26.18,0,0,1,13.7-14.3,25.41,25.41,0,0,1,29,5.85,27.46,27.46,0,0,1,7.2,18.7q0,.8,0,1.6a5.09,5.09,0,0,1-.15,1.1h-44.5a22,22,0,0,0,6.15,13.9,18.4,18.4,0,0,0,5.9,4,17.78,17.78,0,0,0,7.15,1.45,18.79,18.79,0,0,0,5.1-.7,20.17,20.17,0,0,0,4.6-1.9,16.08,16.08,0,0,0,3.75-3,13.12,13.12,0,0,0,2.55-3.85l5.9,1.6a17.31,17.31,0,0,1-3.4,5.25,23.68,23.68,0,0,1-5.1,4.1,24.94,24.94,0,0,1-6.4,2.7A27.39,27.39,0,0,1,2073.21,319.05Zm19.2-29.8a20.91,20.91,0,0,0-6.15-13.6,18.49,18.49,0,0,0-6-3.9,19.21,19.21,0,0,0-14.4,0,18.48,18.48,0,0,0-6,3.9,19.21,19.21,0,0,0-4.1,6,22.69,22.69,0,0,0-1.85,7.6Z"/></g></svg>