<svg xmlns="http://www.w3.org/2000/svg" xmlns:xlink="http://www.w3.org/1999/xlink" viewBox="0 0 440 440"><defs><style>.cls-1,.cls-3{fill:none;}.cls-2{clip-path:url(#clip-path);}.cls-3{stroke:#666;stroke-miterlimit:10;stroke-width:40px;}.cls-4{fill:#299ecb;}.cls-5{fill:#e1b93f;}.cls-6{fill:#d54563;}.cls-7{fill:#b2b74e;}</style><clipPath id="clip-path"><path class="cls-1" d="M225.14,432.23a153.91,153.91,0,0,1-37.07-2.92c-12.43-2.52-29.9-9-56.19-23.61-63-35-98.58-98.62-108.3-116.44A331.07,331.07,0,0,1,6.84,253.69,77.73,77.73,0,0,0,62.25,264,204.75,204.75,0,0,0,215.17,390.2a49,49,0,0,0,10,42Z"/></clipPath></defs><title>logo</title><g id="Bold_Circle" data-name="Bold Circle"><g class="cls-2"><circle class="cls-3" cx="249.76" cy="189" r="225"/></g></g><g id="Polys"><path class="cls-4" d="M138.22,212.59l-17.9,55.1A20,20,0,0,0,127.59,290l46.87,34.05a20,20,0,0,0,23.51,0L244.83,290a20,20,0,0,0,7.27-22.36l-17.9-55.1a20,20,0,0,0-19-13.82H157.24A20,20,0,0,0,138.22,212.59Z"/><path class="cls-5" d="M78.71,110.46A11.58,11.58,0,0,0,82.18,125l16.21,11.34a13.57,13.57,0,0,0,15.77-.79L161.34,94.9a14,14,0,0,0,3.34-15.59l-15-32.16a8.11,8.11,0,0,0-12.42-3.31s-4.16,2.93-11.56,9.32a218.4,218.4,0,0,0-21.93,22.05,224.51,224.51,0,0,0-17,22.27C81.33,105.58,78.71,110.46,78.71,110.46Z"/><path class="cls-6" d="M248.11,98.86l6.06,57.61a20,20,0,0,0,15.73,17.47l56.66,12A20,20,0,0,0,348,176.43l29-50.17a20,20,0,0,0-2.46-23.38L335.79,59.82a20,20,0,0,0-23-4.89L259.87,78.5A20,20,0,0,0,248.11,98.86Z"/><path class="cls-7" d="M408.67,262a11.58,11.58,0,0,0-5.47-13.92l-17.63-9a13.57,13.57,0,0,0-15.5,3L329,289a14,14,0,0,0-1.13,15.9l19.39,29.74A8.11,8.11,0,0,0,360,336.19s3.71-3.48,10.15-10.85a218.4,218.4,0,0,0,18.63-24.9A224.51,224.51,0,0,0,402.56,276C406.76,267.25,408.67,262,408.67,262Z"/></g></svg>